{
    "asset" : {
        "generator" : "Khronos glTF Blender I/O v1.2.75",
        "version" : "2.0"
    },
    "scene" : 0,
    "scenes" : [
        {
            "name" : "Scene",
            "nodes" : [
                0,
                1,
                2,
                3,
                4,
                5,
                6,
                7,
                8
            ]
        }
    ],
    "nodes" : [
        {
            "mesh" : 0,
            "name" : "uk_ssn_dreadnought"
        },
        {
            "mesh" : 1,
            "name" : "uk_ssn_dreadnought_prop"
        },
        {
            "mesh" : 2,
            "name" : "uk_ssn_dreadnought_bowplanes"
        },
        {
            "mesh" : 3,
            "name" : "uk_ssn_dreadnought_rudder",
            "translation" : [
                1.9222234186599962e-05,
                -4.021004676818848,
                -34.97211837768555
            ]
        },
        {
            "mesh" : 4,
            "name" : "usn_ssn_skipjack_esm_mast"
        },
        {
            "mesh" : 5,
            "name" : "usn_ssn_skipjack_periscope"
        },
        {
            "mesh" : 6,
            "name" : "usn_ssn_skipjack_prop",
            "scale" : [
                -1,
                1,
                1
            ]
        },
        {
            "mesh" : 7,
            "name" : "usn_ssn_skipjack_radar_mast"
        },
        {
            "mesh" : 8,
            "name" : "uk_ssn_dreadnought_sternplanes",
            "rotation" : [
                0,
                0,
                0.7071067690849304,
                0.7071068286895752
            ],
            "translation" : [
                1.9222234186599962e-05,
                -4.021004676818848,
                -34.97211837768555
            ]
        }
    ],
    "meshes" : [
        {
            "name" : "uk_ssn_dreadnought",
            "primitives" : [
                {
                    "attributes" : {
                        "POSITION" : 0,
                        "NORMAL" : 1,
                        "TEXCOORD_0" : 2
                    },
                    "indices" : 3
                }
            ]
        },
        {
            "name" : "uk_ssn_dreadnought.001",
            "primitives" : [
                {
                    "attributes" : {
                        "POSITION" : 4,
                        "NORMAL" : 5,
                        "TEXCOORD_0" : 6
                    },
                    "indices" : 7
                }
            ]
        },
        {
            "name" : "uk_ssn_dreadnought.002",
            "primitives" : [
                {
                    "attributes" : {
                        "POSITION" : 8,
                        "NORMAL" : 9,
                        "TEXCOORD_0" : 10
                    },
                    "indices" : 11
                }
            ]
        },
        {
            "name" : "uk_ssn_dreadnought.003",
            "primitives" : [
                {
                    "attributes" : {
                        "POSITION" : 12,
                        "NORMAL" : 13,
                        "TEXCOORD_0" : 14
                    },
                    "indices" : 15
                }
            ]
        },
        {
            "name" : "usn_ssn_skipjack_esm_mastMesh",
            "primitives" : [
                {
                    "attributes" : {
                        "POSITION" : 16,
                        "NORMAL" : 17,
                        "TEXCOORD_0" : 18
                    },
                    "indices" : 19
                }
            ]
        },
        {
            "name" : "usn_ssn_skipjack_periscopeMesh",
            "primitives" : [
                {
                    "attributes" : {
                        "POSITION" : 20,
                        "NORMAL" : 21,
                        "TEXCOORD_0" : 22
                    },
                    "indices" : 23
                }
            ]
        },
        {
            "name" : "usn_ssn_skipjack_propMesh",
            "primitives" : [
                {
                    "attributes" : {
                        "POSITION" : 24,
                        "NORMAL" : 25,
                        "TEXCOORD_0" : 26
                    },
                    "indices" : 27
                }
            ]
        },
        {
            "name" : "usn_ssn_skipjack_radar_mastMesh",
            "primitives" : [
                {
                    "attributes" : {
                        "POSITION" : 28,
                        "NORMAL" : 29,
                        "TEXCOORD_0" : 30
                    },
                    "indices" : 31
                }
            ]
        },
        {
            "name" : "uk_ssn_dreadnought.005",
            "primitives" : [
                {
                    "attributes" : {
                        "POSITION" : 32,
                        "NORMAL" : 33,
                        "TEXCOORD_0" : 34
                    },
                    "indices" : 15
                }
            ]
        }
    ],
    "accessors" : [
        {
            "bufferView" : 0,
            "componentType" : 5126,
            "count" : 2437,
            "max" : [
                5.213072776794434,
                8.5,
                40.54555130004883
            ],
            "min" : [
                -5.217342853546143,
                -8.932815551757812,
                -38.400001525878906
            ],
            "type" : "VEC3"
        },
        {
            "bufferView" : 1,
            "componentType" : 5126,
            "count" : 2437,
            "type" : "VEC3"
        },
        {
            "bufferView" : 2,
            "componentType" : 5126,
            "count" : 2437,
            "type" : "VEC2"
        },
        {
            "bufferView" : 3,
            "componentType" : 5123,
            "count" : 11640,
            "type" : "SCALAR"
        },
        {
            "bufferView" : 4,
            "componentType" : 5126,
            "count" : 4458,
            "max" : [
                2.0289900302886963,
                -1.8657536506652832,
                -38.400001525878906
            ],
            "min" : [
                -1.9650750160217285,
                -5.741128921508789,
                -40.52019119262695
            ],
            "type" : "VEC3"
        },
        {
            "bufferView" : 5,
            "componentType" : 5126,
            "count" : 4458,
            "type" : "VEC3"
        },
        {
            "bufferView" : 6,
            "componentType" : 5126,
            "count" : 4458,
            "type" : "VEC2"
        },
        {
            "bufferView" : 7,
            "componentType" : 5123,
            "count" : 18432,
            "type" : "SCALAR"
        },
        {
            "bufferView" : 8,
            "componentType" : 5126,
            "count" : 344,
            "max" : [
                5.75,
                -0.5500052571296692,
                32.900001525878906
            ],
            "min" : [
                -5.75,
                -1.0499773025512695,
                29.700000762939453
            ],
            "type" : "VEC3"
        },
        {
            "bufferView" : 9,
            "componentType" : 5126,
            "count" : 344,
            "type" : "VEC3"
        },
        {
            "bufferView" : 10,
            "componentType" : 5126,
            "count" : 344,
            "type" : "VEC2"
        },
        {
            "bufferView" : 11,
            "componentType" : 5123,
            "count" : 960,
            "type" : "SCALAR"
        },
        {
            "bufferView" : 12,
            "componentType" : 5126,
            "count" : 554,
            "max" : [
                0.1999787837266922,
                4.021010875701904,
                1.7206459045410156
            ],
            "min" : [
                -0.20001722872257233,
                -3.9001684188842773,
                -2.9170265197753906
            ],
            "type" : "VEC3"
        },
        {
            "bufferView" : 13,
            "componentType" : 5126,
            "count" : 554,
            "type" : "VEC3"
        },
        {
            "bufferView" : 14,
            "componentType" : 5126,
            "count" : 554,
            "type" : "VEC2"
        },
        {
            "bufferView" : 15,
            "componentType" : 5123,
            "count" : 2550,
            "type" : "SCALAR"
        },
        {
            "bufferView" : 16,
            "componentType" : 5126,
            "count" : 88,
            "max" : [
                0.23782320320606232,
                13.985316276550293,
                5.599762916564941
            ],
            "min" : [
                -0.16852392256259918,
                1.0362701416015625,
                5.104398727416992
            ],
            "type" : "VEC3"
        },
        {
            "bufferView" : 17,
            "componentType" : 5126,
            "count" : 88,
            "type" : "VEC3"
        },
        {
            "bufferView" : 18,
            "componentType" : 5126,
            "count" : 88,
            "type" : "VEC2"
        },
        {
            "bufferView" : 19,
            "componentType" : 5123,
            "count" : 180,
            "type" : "SCALAR"
        },
        {
            "bufferView" : 20,
            "componentType" : 5126,
            "count" : 47,
            "max" : [
                -0.20775897800922394,
                15.172396659851074,
                8.458556175231934
            ],
            "min" : [
                -0.32669562101364136,
                1.670039415359497,
                8.333884239196777
            ],
            "type" : "VEC3"
        },
        {
            "bufferView" : 21,
            "componentType" : 5126,
            "count" : 47,
            "type" : "VEC3"
        },
        {
            "bufferView" : 22,
            "componentType" : 5126,
            "count" : 47,
            "type" : "VEC2"
        },
        {
            "bufferView" : 23,
            "componentType" : 5123,
            "count" : 99,
            "type" : "SCALAR"
        },
        {
            "bufferView" : 24,
            "componentType" : 5126,
            "count" : 965,
            "max" : [
                1.711293339729309,
                -2.207864761352539,
                -38.393463134765625
            ],
            "min" : [
                -1.8118181228637695,
                -5.767783164978027,
                -40.20817184448242
            ],
            "type" : "VEC3"
        },
        {
            "bufferView" : 25,
            "componentType" : 5126,
            "count" : 965,
            "type" : "VEC3"
        },
        {
            "bufferView" : 26,
            "componentType" : 5126,
            "count" : 965,
            "type" : "VEC2"
        },
        {
            "bufferView" : 27,
            "componentType" : 5123,
            "count" : 4116,
            "type" : "SCALAR"
        },
        {
            "bufferView" : 28,
            "componentType" : 5126,
            "count" : 130,
            "max" : [
                0.5634341239929199,
                15.230993270874023,
                7.075756549835205
            ],
            "min" : [
                -0.19232483208179474,
                2.4191956520080566,
                6.479746341705322
            ],
            "type" : "VEC3"
        },
        {
            "bufferView" : 29,
            "componentType" : 5126,
            "count" : 130,
            "type" : "VEC3"
        },
        {
            "bufferView" : 30,
            "componentType" : 5126,
            "count" : 130,
            "type" : "VEC2"
        },
        {
            "bufferView" : 31,
            "componentType" : 5123,
            "count" : 282,
            "type" : "SCALAR"
        },
        {
            "bufferView" : 32,
            "componentType" : 5126,
            "count" : 554,
            "max" : [
                0.1999787837266922,
                4.021010875701904,
                1.7206459045410156
            ],
            "min" : [
                -0.20001722872257233,
                -3.9001684188842773,
                -2.9170265197753906
            ],
            "type" : "VEC3"
        },
        {
            "bufferView" : 33,
            "componentType" : 5126,
            "count" : 554,
            "type" : "VEC3"
        },
        {
            "bufferView" : 34,
            "componentType" : 5126,
            "count" : 554,
            "type" : "VEC2"
        }
    ],
    "bufferViews" : [
        {
            "buffer" : 0,
            "byteLength" : 29244,
            "byteOffset" : 0
        },
        {
            "buffer" : 0,
            "byteLength" : 29244,
            "byteOffset" : 29244
        },
        {
            "buffer" : 0,
            "byteLength" : 19496,
            "byteOffset" : 58488
        },
        {
            "buffer" : 0,
            "byteLength" : 23280,
            "byteOffset" : 77984
        },
        {
            "buffer" : 0,
            "byteLength" : 53496,
            "byteOffset" : 101264
        },
        {
            "buffer" : 0,
            "byteLength" : 53496,
            "byteOffset" : 154760
        },
        {
            "buffer" : 0,
            "byteLength" : 35664,
            "byteOffset" : 208256
        },
        {
            "buffer" : 0,
            "byteLength" : 36864,
            "byteOffset" : 243920
        },
        {
            "buffer" : 0,
            "byteLength" : 4128,
            "byteOffset" : 280784
        },
        {
            "buffer" : 0,
            "byteLength" : 4128,
            "byteOffset" : 284912
        },
        {
            "buffer" : 0,
            "byteLength" : 2752,
            "byteOffset" : 289040
        },
        {
            "buffer" : 0,
            "byteLength" : 1920,
            "byteOffset" : 291792
        },
        {
            "buffer" : 0,
            "byteLength" : 6648,
            "byteOffset" : 293712
        },
        {
            "buffer" : 0,
            "byteLength" : 6648,
            "byteOffset" : 300360
        },
        {
            "buffer" : 0,
            "byteLength" : 4432,
            "byteOffset" : 307008
        },
        {
            "buffer" : 0,
            "byteLength" : 5100,
            "byteOffset" : 311440
        },
        {
            "buffer" : 0,
            "byteLength" : 1056,
            "byteOffset" : 316540
        },
        {
            "buffer" : 0,
            "byteLength" : 1056,
            "byteOffset" : 317596
        },
        {
            "buffer" : 0,
            "byteLength" : 704,
            "byteOffset" : 318652
        },
        {
            "buffer" : 0,
            "byteLength" : 360,
            "byteOffset" : 319356
        },
        {
            "buffer" : 0,
            "byteLength" : 564,
            "byteOffset" : 319716
        },
        {
            "buffer" : 0,
            "byteLength" : 564,
            "byteOffset" : 320280
        },
        {
            "buffer" : 0,
            "byteLength" : 376,
            "byteOffset" : 320844
        },
        {
            "buffer" : 0,
            "byteLength" : 198,
            "byteOffset" : 321220
        },
        {
            "buffer" : 0,
            "byteLength" : 11580,
            "byteOffset" : 321420
        },
        {
            "buffer" : 0,
            "byteLength" : 11580,
            "byteOffset" : 333000
        },
        {
            "buffer" : 0,
            "byteLength" : 7720,
            "byteOffset" : 344580
        },
        {
            "buffer" : 0,
            "byteLength" : 8232,
            "byteOffset" : 352300
        },
        {
            "buffer" : 0,
            "byteLength" : 1560,
            "byteOffset" : 360532
        },
        {
            "buffer" : 0,
            "byteLength" : 1560,
            "byteOffset" : 362092
        },
        {
            "buffer" : 0,
            "byteLength" : 1040,
            "byteOffset" : 363652
        },
        {
            "buffer" : 0,
            "byteLength" : 564,
            "byteOffset" : 364692
        },
        {
            "buffer" : 0,
            "byteLength" : 6648,
            "byteOffset" : 365256
        },
        {
            "buffer" : 0,
            "byteLength" : 6648,
            "byteOffset" : 371904
        },
        {
            "buffer" : 0,
            "byteLength" : 4432,
            "byteOffset" : 378552
        }
    ],
    "buffers" : [
        {
            "byteLength" : 382984,
            "uri" : "data:application/octet-stream;base64,"
        }
    ]
}
