{
    "asset" : {
        "generator" : "Khronos glTF Blender I/O v1.2.75",
        "version" : "2.0"
    },
    "scene" : 0,
    "scenes" : [
        {
            "name" : "Scene",
            "nodes" : [
                0,
                1,
                2,
                3,
                4,
                5,
                6,
                7,
                8,
                9
            ]
        }
    ],
    "nodes" : [
        {
            "mesh" : 0,
            "name" : "uk_ssn_dreadnought"
        },
        {
            "mesh" : 1,
            "name" : "uk_ssn_dreadnought_prop",
            "translation" : [
                0,
                -3.9606080055236816,
                -38.400020599365234
            ]
        },
        {
            "mesh" : 2,
            "name" : "uk_ssn_dreadnought_bowplanes",
            "translation" : [
                0,
                -0.8001728653907776,
                32.10032653808594
            ]
        },
        {
            "mesh" : 3,
            "name" : "usn_ssn_skipjack_esm_mast",
            "translation" : [
                0.03465000167489052,
                8,
                5.380199909210205
            ]
        },
        {
            "mesh" : 4,
            "name" : "usn_ssn_skipjack_periscope",
            "translation" : [
                -0.26722800731658936,
                8,
                8.393630027770996
            ]
        },
        {
            "mesh" : 5,
            "name" : "usn_ssn_skipjack_prop",
            "scale" : [
                -1,
                1,
                1
            ]
        },
        {
            "mesh" : 6,
            "name" : "usn_ssn_skipjack_radar_mast",
            "translation" : [
                0.18555299937725067,
                8,
                6.814630031585693
            ]
        },
        {
            "mesh" : 7,
            "name" : "old_sternpalnes",
            "translation" : [
                1.9222234186599962e-05,
                -4.020999908447266,
                -34.97209930419922
            ]
        },
        {
            "mesh" : 8,
            "name" : "uk_ssn_dreadnought_sternplanes",
            "translation" : [
                0,
                -4.020999908447266,
                -34.97200012207031
            ]
        },
        {
            "mesh" : 9,
            "name" : "uk_ssn_dreadnought_rudder",
            "translation" : [
                0,
                -4.020999908447266,
                -34.97200012207031
            ]
        }
    ],
    "meshes" : [
        {
            "name" : "uk_ssn_dreadnought",
            "primitives" : [
                {
                    "attributes" : {
                        "POSITION" : 0,
                        "NORMAL" : 1,
                        "TEXCOORD_0" : 2
                    },
                    "indices" : 3
                }
            ]
        },
        {
            "name" : "uk_ssn_dreadnought.001",
            "primitives" : [
                {
                    "attributes" : {
                        "POSITION" : 4,
                        "NORMAL" : 5,
                        "TEXCOORD_0" : 6
                    },
                    "indices" : 7
                }
            ]
        },
        {
            "name" : "uk_ssn_dreadnought.002",
            "primitives" : [
                {
                    "attributes" : {
                        "POSITION" : 8,
                        "NORMAL" : 9,
                        "TEXCOORD_0" : 10
                    },
                    "indices" : 11
                }
            ]
        },
        {
            "name" : "usn_ssn_skipjack_esm_mastMesh",
            "primitives" : [
                {
                    "attributes" : {
                        "POSITION" : 12,
                        "NORMAL" : 13,
                        "TEXCOORD_0" : 14
                    },
                    "indices" : 15
                }
            ]
        },
        {
            "name" : "usn_ssn_skipjack_periscopeMesh",
            "primitives" : [
                {
                    "attributes" : {
                        "POSITION" : 16,
                        "NORMAL" : 17,
                        "TEXCOORD_0" : 18
                    },
                    "indices" : 19
                }
            ]
        },
        {
            "name" : "usn_ssn_skipjack_propMesh",
            "primitives" : [
                {
                    "attributes" : {
                        "POSITION" : 20,
                        "NORMAL" : 21,
                        "TEXCOORD_0" : 22
                    },
                    "indices" : 23
                }
            ]
        },
        {
            "name" : "usn_ssn_skipjack_radar_mastMesh",
            "primitives" : [
                {
                    "attributes" : {
                        "POSITION" : 24,
                        "NORMAL" : 25,
                        "TEXCOORD_0" : 26
                    },
                    "indices" : 27
                }
            ]
        },
        {
            "name" : "uk_ssn_dreadnought.005",
            "primitives" : [
                {
                    "attributes" : {
                        "POSITION" : 28,
                        "NORMAL" : 29,
                        "TEXCOORD_0" : 30
                    },
                    "indices" : 31
                }
            ]
        },
        {
            "name" : "Cylinder.004",
            "primitives" : [
                {
                    "attributes" : {
                        "POSITION" : 32,
                        "NORMAL" : 33,
                        "TEXCOORD_0" : 34
                    },
                    "indices" : 35
                }
            ]
        },
        {
            "name" : "Cylinder.005",
            "primitives" : [
                {
                    "attributes" : {
                        "POSITION" : 36,
                        "NORMAL" : 37,
                        "TEXCOORD_0" : 38
                    },
                    "indices" : 39
                }
            ]
        }
    ],
    "accessors" : [
        {
            "bufferView" : 0,
            "componentType" : 5126,
            "count" : 2437,
            "max" : [
                5.213072776794434,
                8.5,
                40.54555130004883
            ],
            "min" : [
                -5.217342853546143,
                -8.932815551757812,
                -38.400001525878906
            ],
            "type" : "VEC3"
        },
        {
            "bufferView" : 1,
            "componentType" : 5126,
            "count" : 2437,
            "type" : "VEC3"
        },
        {
            "bufferView" : 2,
            "componentType" : 5126,
            "count" : 2437,
            "type" : "VEC2"
        },
        {
            "bufferView" : 3,
            "componentType" : 5123,
            "count" : 11640,
            "type" : "SCALAR"
        },
        {
            "bufferView" : 4,
            "componentType" : 5126,
            "count" : 4458,
            "max" : [
                2.0289900302886963,
                2.0948543548583984,
                1.9073486328125e-05
            ],
            "min" : [
                -1.9650750160217285,
                -1.7805209159851074,
                -2.1201705932617188
            ],
            "type" : "VEC3"
        },
        {
            "bufferView" : 5,
            "componentType" : 5126,
            "count" : 4458,
            "type" : "VEC3"
        },
        {
            "bufferView" : 6,
            "componentType" : 5126,
            "count" : 4458,
            "type" : "VEC2"
        },
        {
            "bufferView" : 7,
            "componentType" : 5123,
            "count" : 18432,
            "type" : "SCALAR"
        },
        {
            "bufferView" : 8,
            "componentType" : 5126,
            "count" : 344,
            "max" : [
                5.749997615814209,
                0.2501676082611084,
                0.7996749877929688
            ],
            "min" : [
                -5.750002861022949,
                -0.24980443716049194,
                -2.4003257751464844
            ],
            "type" : "VEC3"
        },
        {
            "bufferView" : 9,
            "componentType" : 5126,
            "count" : 344,
            "type" : "VEC3"
        },
        {
            "bufferView" : 10,
            "componentType" : 5126,
            "count" : 344,
            "type" : "VEC2"
        },
        {
            "bufferView" : 11,
            "componentType" : 5123,
            "count" : 960,
            "type" : "SCALAR"
        },
        {
            "bufferView" : 12,
            "componentType" : 5126,
            "count" : 88,
            "max" : [
                0.20317332446575165,
                5.985318183898926,
                0.21956348419189453
            ],
            "min" : [
                -0.20317380130290985,
                -6.963727951049805,
                -0.2758007049560547
            ],
            "type" : "VEC3"
        },
        {
            "bufferView" : 13,
            "componentType" : 5126,
            "count" : 88,
            "type" : "VEC3"
        },
        {
            "bufferView" : 14,
            "componentType" : 5126,
            "count" : 88,
            "type" : "VEC2"
        },
        {
            "bufferView" : 15,
            "componentType" : 5123,
            "count" : 180,
            "type" : "SCALAR"
        },
        {
            "bufferView" : 16,
            "componentType" : 5126,
            "count" : 47,
            "max" : [
                0.059469230473041534,
                6.266157627105713,
                0.06492963433265686
            ],
            "min" : [
                -0.059467412531375885,
                -7.236199855804443,
                -0.05974230170249939
            ],
            "type" : "VEC3"
        },
        {
            "bufferView" : 17,
            "componentType" : 5126,
            "count" : 47,
            "type" : "VEC3"
        },
        {
            "bufferView" : 18,
            "componentType" : 5126,
            "count" : 47,
            "type" : "VEC2"
        },
        {
            "bufferView" : 19,
            "componentType" : 5123,
            "count" : 99,
            "type" : "SCALAR"
        },
        {
            "bufferView" : 20,
            "componentType" : 5126,
            "count" : 965,
            "max" : [
                1.711293339729309,
                -2.207864761352539,
                -38.393463134765625
            ],
            "min" : [
                -1.8118181228637695,
                -5.767783164978027,
                -40.20817184448242
            ],
            "type" : "VEC3"
        },
        {
            "bufferView" : 21,
            "componentType" : 5126,
            "count" : 965,
            "type" : "VEC3"
        },
        {
            "bufferView" : 22,
            "componentType" : 5126,
            "count" : 965,
            "type" : "VEC2"
        },
        {
            "bufferView" : 23,
            "componentType" : 5123,
            "count" : 4116,
            "type" : "SCALAR"
        },
        {
            "bufferView" : 24,
            "componentType" : 5126,
            "count" : 130,
            "max" : [
                0.3778809905052185,
                6.2772650718688965,
                0.26113033294677734
            ],
            "min" : [
                -0.37787795066833496,
                -6.53453254699707,
                -0.33487987518310547
            ],
            "type" : "VEC3"
        },
        {
            "bufferView" : 25,
            "componentType" : 5126,
            "count" : 130,
            "type" : "VEC3"
        },
        {
            "bufferView" : 26,
            "componentType" : 5126,
            "count" : 130,
            "type" : "VEC2"
        },
        {
            "bufferView" : 27,
            "componentType" : 5123,
            "count" : 282,
            "type" : "SCALAR"
        },
        {
            "bufferView" : 28,
            "componentType" : 5126,
            "count" : 554,
            "max" : [
                3.9001684188842773,
                0.1999788135290146,
                1.7206459045410156
            ],
            "min" : [
                -4.021010875701904,
                -0.20001725852489471,
                -2.9170265197753906
            ],
            "type" : "VEC3"
        },
        {
            "bufferView" : 29,
            "componentType" : 5126,
            "count" : 554,
            "type" : "VEC3"
        },
        {
            "bufferView" : 30,
            "componentType" : 5126,
            "count" : 554,
            "type" : "VEC2"
        },
        {
            "bufferView" : 31,
            "componentType" : 5123,
            "count" : 2550,
            "type" : "SCALAR"
        },
        {
            "bufferView" : 32,
            "componentType" : 5126,
            "count" : 163,
            "max" : [
                3.952611207962036,
                0.20732545852661133,
                1.7169557809829712
            ],
            "min" : [
                -3.9526166915893555,
                -0.2073204517364502,
                -2.9680380821228027
            ],
            "type" : "VEC3"
        },
        {
            "bufferView" : 33,
            "componentType" : 5126,
            "count" : 163,
            "type" : "VEC3"
        },
        {
            "bufferView" : 34,
            "componentType" : 5126,
            "count" : 163,
            "type" : "VEC2"
        },
        {
            "bufferView" : 35,
            "componentType" : 5123,
            "count" : 564,
            "type" : "SCALAR"
        },
        {
            "bufferView" : 36,
            "componentType" : 5126,
            "count" : 163,
            "max" : [
                0.2073257565498352,
                3.9526166915893555,
                1.7169557809829712
            ],
            "min" : [
                -0.20732074975967407,
                -3.952611207962036,
                -2.9680380821228027
            ],
            "type" : "VEC3"
        },
        {
            "bufferView" : 37,
            "componentType" : 5126,
            "count" : 163,
            "type" : "VEC3"
        },
        {
            "bufferView" : 38,
            "componentType" : 5126,
            "count" : 163,
            "type" : "VEC2"
        },
        {
            "bufferView" : 39,
            "componentType" : 5123,
            "count" : 564,
            "type" : "SCALAR"
        }
    ],
    "bufferViews" : [
        {
            "buffer" : 0,
            "byteLength" : 29244,
            "byteOffset" : 0
        },
        {
            "buffer" : 0,
            "byteLength" : 29244,
            "byteOffset" : 29244
        },
        {
            "buffer" : 0,
            "byteLength" : 19496,
            "byteOffset" : 58488
        },
        {
            "buffer" : 0,
            "byteLength" : 23280,
            "byteOffset" : 77984
        },
        {
            "buffer" : 0,
            "byteLength" : 53496,
            "byteOffset" : 101264
        },
        {
            "buffer" : 0,
            "byteLength" : 53496,
            "byteOffset" : 154760
        },
        {
            "buffer" : 0,
            "byteLength" : 35664,
            "byteOffset" : 208256
        },
        {
            "buffer" : 0,
            "byteLength" : 36864,
            "byteOffset" : 243920
        },
        {
            "buffer" : 0,
            "byteLength" : 4128,
            "byteOffset" : 280784
        },
        {
            "buffer" : 0,
            "byteLength" : 4128,
            "byteOffset" : 284912
        },
        {
            "buffer" : 0,
            "byteLength" : 2752,
            "byteOffset" : 289040
        },
        {
            "buffer" : 0,
            "byteLength" : 1920,
            "byteOffset" : 291792
        },
        {
            "buffer" : 0,
            "byteLength" : 1056,
            "byteOffset" : 293712
        },
        {
            "buffer" : 0,
            "byteLength" : 1056,
            "byteOffset" : 294768
        },
        {
            "buffer" : 0,
            "byteLength" : 704,
            "byteOffset" : 295824
        },
        {
            "buffer" : 0,
            "byteLength" : 360,
            "byteOffset" : 296528
        },
        {
            "buffer" : 0,
            "byteLength" : 564,
            "byteOffset" : 296888
        },
        {
            "buffer" : 0,
            "byteLength" : 564,
            "byteOffset" : 297452
        },
        {
            "buffer" : 0,
            "byteLength" : 376,
            "byteOffset" : 298016
        },
        {
            "buffer" : 0,
            "byteLength" : 198,
            "byteOffset" : 298392
        },
        {
            "buffer" : 0,
            "byteLength" : 11580,
            "byteOffset" : 298592
        },
        {
            "buffer" : 0,
            "byteLength" : 11580,
            "byteOffset" : 310172
        },
        {
            "buffer" : 0,
            "byteLength" : 7720,
            "byteOffset" : 321752
        },
        {
            "buffer" : 0,
            "byteLength" : 8232,
            "byteOffset" : 329472
        },
        {
            "buffer" : 0,
            "byteLength" : 1560,
            "byteOffset" : 337704
        },
        {
            "buffer" : 0,
            "byteLength" : 1560,
            "byteOffset" : 339264
        },
        {
            "buffer" : 0,
            "byteLength" : 1040,
            "byteOffset" : 340824
        },
        {
            "buffer" : 0,
            "byteLength" : 564,
            "byteOffset" : 341864
        },
        {
            "buffer" : 0,
            "byteLength" : 6648,
            "byteOffset" : 342428
        },
        {
            "buffer" : 0,
            "byteLength" : 6648,
            "byteOffset" : 349076
        },
        {
            "buffer" : 0,
            "byteLength" : 4432,
            "byteOffset" : 355724
        },
        {
            "buffer" : 0,
            "byteLength" : 5100,
            "byteOffset" : 360156
        },
        {
            "buffer" : 0,
            "byteLength" : 1956,
            "byteOffset" : 365256
        },
        {
            "buffer" : 0,
            "byteLength" : 1956,
            "byteOffset" : 367212
        },
        {
            "buffer" : 0,
            "byteLength" : 1304,
            "byteOffset" : 369168
        },
        {
            "buffer" : 0,
            "byteLength" : 1128,
            "byteOffset" : 370472
        },
        {
            "buffer" : 0,
            "byteLength" : 1956,
            "byteOffset" : 371600
        },
        {
            "buffer" : 0,
            "byteLength" : 1956,
            "byteOffset" : 373556
        },
        {
            "buffer" : 0,
            "byteLength" : 1304,
            "byteOffset" : 375512
        },
        {
            "buffer" : 0,
            "byteLength" : 1128,
            "byteOffset" : 376816
        }
    ],
    "buffers" : [
        {
            "byteLength" : 377944,
            "uri" : "data:application/octet-stream;base64,"
        }
    ]
}
