{
    "asset" : {
        "generator" : "Khronos glTF Blender I/O v1.2.75",
        "version" : "2.0"
    },
    "scene" : 0,
    "scenes" : [
        {
            "name" : "Scene",
            "nodes" : [
                5,
                12,
                19
            ]
        }
    ],
    "nodes" : [
        {
            "mesh" : 0,
            "name" : "uk_mk8mod4_fin.000"
        },
        {
            "mesh" : 0,
            "name" : "uk_mk8mod4_fin.001",
            "rotation" : [
                0,
                0,
                0.7071068286895752,
                0.7071068286895752
            ]
        },
        {
            "mesh" : 0,
            "name" : "uk_mk8mod4_fin.002",
            "rotation" : [
                0,
                0,
                -1,
                -1.1324685544877866e-07
            ]
        },
        {
            "mesh" : 0,
            "name" : "uk_mk8mod4_fin.003",
            "rotation" : [
                0,
                0,
                -0.7071068286895752,
                0.7071067690849304
            ]
        },
        {
            "mesh" : 1,
            "name" : "uk_mk8mod4_shroud"
        },
        {
            "children" : [
                0,
                1,
                2,
                3,
                4
            ],
            "mesh" : 2,
            "name" : "uk_mk8mod4",
            "rotation" : [
                0,
                0,
                0,
                -1
            ]
        },
        {
            "mesh" : 3,
            "name" : "uk_mk8mod4_propfwd_blade.000"
        },
        {
            "mesh" : 3,
            "name" : "uk_mk8mod4_propfwd_blade.001",
            "rotation" : [
                0,
                0,
                -0.5000000596046448,
                0.8660253882408142
            ]
        },
        {
            "mesh" : 3,
            "name" : "uk_mk8mod4_propfwd_blade.002",
            "rotation" : [
                0,
                0,
                0.5,
                0.8660253882408142
            ]
        },
        {
            "mesh" : 3,
            "name" : "uk_mk8mod4_propfwd_blade.003",
            "rotation" : [
                0,
                0,
                0.8660253882408142,
                0.5000000596046448
            ]
        },
        {
            "mesh" : 3,
            "name" : "uk_mk8mod4_propfwd_blade.004",
            "rotation" : [
                0,
                0,
                -1,
                -7.549791547489804e-08
            ]
        },
        {
            "mesh" : 3,
            "name" : "uk_mk8mod4_propfwd_blade.005",
            "rotation" : [
                0,
                0,
                -0.866025447845459,
                0.4999999403953552
            ]
        },
        {
            "children" : [
                6,
                7,
                8,
                9,
                10,
                11
            ],
            "mesh" : 4,
            "name" : "uk_mk8mod4_propfwd",
            "rotation" : [
                0,
                0,
                0,
                -1
            ]
        },
        {
            "mesh" : 5,
            "name" : "uk_mk8mod4_propaft_blade.000"
        },
        {
            "mesh" : 5,
            "name" : "uk_mk8mod4_propaft_blade.001",
            "rotation" : [
                0,
                0,
                0.5,
                0.8660253882408142
            ]
        },
        {
            "mesh" : 5,
            "name" : "uk_mk8mod4_propaft_blade.002",
            "rotation" : [
                0,
                0,
                0.8660253882408142,
                0.5000000596046448
            ]
        },
        {
            "mesh" : 5,
            "name" : "uk_mk8mod4_propaft_blade.003",
            "rotation" : [
                0,
                0,
                -1,
                -7.549791547489804e-08
            ]
        },
        {
            "mesh" : 5,
            "name" : "uk_mk8mod4_propaft_blade.004",
            "rotation" : [
                0,
                0,
                -0.8660253882408142,
                0.5
            ]
        },
        {
            "mesh" : 5,
            "name" : "uk_mk8mod4_propaft_blade.005",
            "rotation" : [
                0,
                0,
                -0.5000000596046448,
                0.8660253882408142
            ]
        },
        {
            "children" : [
                13,
                14,
                15,
                16,
                17,
                18
            ],
            "mesh" : 6,
            "name" : "uk_mk8mod4_propaft",
            "rotation" : [
                0,
                0,
                0,
                -1
            ]
        }
    ],
    "meshes" : [
        {
            "name" : "uk_mk8mod4_fin",
            "primitives" : [
                {
                    "attributes" : {
                        "POSITION" : 0,
                        "NORMAL" : 1,
                        "TEXCOORD_0" : 2
                    },
                    "indices" : 3
                }
            ]
        },
        {
            "name" : "uk_mk8mod4_shroud",
            "primitives" : [
                {
                    "attributes" : {
                        "POSITION" : 4,
                        "NORMAL" : 5,
                        "TEXCOORD_0" : 6
                    },
                    "indices" : 7
                }
            ]
        },
        {
            "name" : "uk_mk8mod4_body",
            "primitives" : [
                {
                    "attributes" : {
                        "POSITION" : 8,
                        "NORMAL" : 9,
                        "TEXCOORD_0" : 10
                    },
                    "indices" : 11
                }
            ]
        },
        {
            "name" : "uk_mk8mod4_propfwd_blade",
            "primitives" : [
                {
                    "attributes" : {
                        "POSITION" : 12,
                        "NORMAL" : 13,
                        "TEXCOORD_0" : 14
                    },
                    "indices" : 15
                }
            ]
        },
        {
            "name" : "uk_mk8mod4_propfwd_hub",
            "primitives" : [
                {
                    "attributes" : {
                        "POSITION" : 16,
                        "NORMAL" : 17,
                        "TEXCOORD_0" : 18
                    },
                    "indices" : 19
                }
            ]
        },
        {
            "name" : "uk_mk8mod4_propaft_blade",
            "primitives" : [
                {
                    "attributes" : {
                        "POSITION" : 20,
                        "NORMAL" : 21,
                        "TEXCOORD_0" : 22
                    },
                    "indices" : 23
                }
            ]
        },
        {
            "name" : "uk_mk8mod4_propaft_hub",
            "primitives" : [
                {
                    "attributes" : {
                        "POSITION" : 24,
                        "NORMAL" : 25,
                        "TEXCOORD_0" : 26
                    },
                    "indices" : 27
                }
            ]
        }
    ],
    "accessors" : [
        {
            "bufferView" : 0,
            "componentType" : 5126,
            "count" : 38,
            "max" : [
                0.0024999999441206455,
                0.26669999957084656,
                -2.429547071456909
            ],
            "min" : [
                -0.0024999999441206455,
                0,
                -3.070359945297241
            ],
            "type" : "VEC3"
        },
        {
            "bufferView" : 1,
            "componentType" : 5126,
            "count" : 38,
            "type" : "VEC3"
        },
        {
            "bufferView" : 2,
            "componentType" : 5126,
            "count" : 38,
            "type" : "VEC2"
        },
        {
            "bufferView" : 3,
            "componentType" : 5123,
            "count" : 84,
            "type" : "SCALAR"
        },
        {
            "bufferView" : 4,
            "componentType" : 5126,
            "count" : 324,
            "max" : [
                0.2665039896965027,
                0.26669999957084656,
                -3.070359945297241
            ],
            "min" : [
                -0.2665039896965027,
                -0.26591700315475464,
                -3.3003599643707275
            ],
            "type" : "VEC3"
        },
        {
            "bufferView" : 5,
            "componentType" : 5126,
            "count" : 324,
            "type" : "VEC3"
        },
        {
            "bufferView" : 6,
            "componentType" : 5126,
            "count" : 324,
            "type" : "VEC2"
        },
        {
            "bufferView" : 7,
            "componentType" : 5123,
            "count" : 936,
            "type" : "SCALAR"
        },
        {
            "bufferView" : 8,
            "componentType" : 5126,
            "count" : 367,
            "max" : [
                0.26669999957084656,
                0.26669999957084656,
                3.279639959335327
            ],
            "min" : [
                -0.26669999957084656,
                -0.26669999957084656,
                -3.070359945297241
            ],
            "type" : "VEC3"
        },
        {
            "bufferView" : 9,
            "componentType" : 5126,
            "count" : 367,
            "type" : "VEC3"
        },
        {
            "bufferView" : 10,
            "componentType" : 5126,
            "count" : 367,
            "type" : "VEC2"
        },
        {
            "bufferView" : 11,
            "componentType" : 5123,
            "count" : 1794,
            "type" : "SCALAR"
        },
        {
            "bufferView" : 12,
            "componentType" : 5126,
            "count" : 186,
            "max" : [
                0.2555390000343323,
                0.038690999150276184,
                -3.084512948989868
            ],
            "min" : [
                0,
                -0.04151900112628937,
                -3.171144962310791
            ],
            "type" : "VEC3"
        },
        {
            "bufferView" : 13,
            "componentType" : 5126,
            "count" : 186,
            "type" : "VEC3"
        },
        {
            "bufferView" : 14,
            "componentType" : 5126,
            "count" : 186,
            "type" : "VEC2"
        },
        {
            "bufferView" : 15,
            "componentType" : 5123,
            "count" : 870,
            "type" : "SCALAR"
        },
        {
            "bufferView" : 16,
            "componentType" : 5126,
            "count" : 78,
            "max" : [
                0.08000000566244125,
                0.07999999821186066,
                -3.070359945297241
            ],
            "min" : [
                -0.07999999076128006,
                -0.07999999821186066,
                -3.1853599548339844
            ],
            "type" : "VEC3"
        },
        {
            "bufferView" : 17,
            "componentType" : 5126,
            "count" : 78,
            "type" : "VEC3"
        },
        {
            "bufferView" : 18,
            "componentType" : 5126,
            "count" : 78,
            "type" : "VEC2"
        },
        {
            "bufferView" : 19,
            "componentType" : 5123,
            "count" : 222,
            "type" : "SCALAR"
        },
        {
            "bufferView" : 20,
            "componentType" : 5126,
            "count" : 185,
            "max" : [
                0.23083800077438354,
                0.03762099891901016,
                -3.1995949745178223
            ],
            "min" : [
                0,
                -0.034786999225616455,
                -3.2860629558563232
            ],
            "type" : "VEC3"
        },
        {
            "bufferView" : 21,
            "componentType" : 5126,
            "count" : 185,
            "type" : "VEC3"
        },
        {
            "bufferView" : 22,
            "componentType" : 5126,
            "count" : 185,
            "type" : "VEC2"
        },
        {
            "bufferView" : 23,
            "componentType" : 5123,
            "count" : 864,
            "type" : "SCALAR"
        },
        {
            "bufferView" : 24,
            "componentType" : 5126,
            "count" : 96,
            "max" : [
                0.0548119880259037,
                0.054999999701976776,
                -3.1853599548339844
            ],
            "min" : [
                -0.05481201037764549,
                -0.054999999701976776,
                -3.3003599643707275
            ],
            "type" : "VEC3"
        },
        {
            "bufferView" : 25,
            "componentType" : 5126,
            "count" : 96,
            "type" : "VEC3"
        },
        {
            "bufferView" : 26,
            "componentType" : 5126,
            "count" : 96,
            "type" : "VEC2"
        },
        {
            "bufferView" : 27,
            "componentType" : 5123,
            "count" : 276,
            "type" : "SCALAR"
        }
    ],
    "bufferViews" : [
        {
            "buffer" : 0,
            "byteLength" : 456,
            "byteOffset" : 0
        },
        {
            "buffer" : 0,
            "byteLength" : 456,
            "byteOffset" : 456
        },
        {
            "buffer" : 0,
            "byteLength" : 304,
            "byteOffset" : 912
        },
        {
            "buffer" : 0,
            "byteLength" : 168,
            "byteOffset" : 1216
        },
        {
            "buffer" : 0,
            "byteLength" : 3888,
            "byteOffset" : 1384
        },
        {
            "buffer" : 0,
            "byteLength" : 3888,
            "byteOffset" : 5272
        },
        {
            "buffer" : 0,
            "byteLength" : 2592,
            "byteOffset" : 9160
        },
        {
            "buffer" : 0,
            "byteLength" : 1872,
            "byteOffset" : 11752
        },
        {
            "buffer" : 0,
            "byteLength" : 4404,
            "byteOffset" : 13624
        },
        {
            "buffer" : 0,
            "byteLength" : 4404,
            "byteOffset" : 18028
        },
        {
            "buffer" : 0,
            "byteLength" : 2936,
            "byteOffset" : 22432
        },
        {
            "buffer" : 0,
            "byteLength" : 3588,
            "byteOffset" : 25368
        },
        {
            "buffer" : 0,
            "byteLength" : 2232,
            "byteOffset" : 28956
        },
        {
            "buffer" : 0,
            "byteLength" : 2232,
            "byteOffset" : 31188
        },
        {
            "buffer" : 0,
            "byteLength" : 1488,
            "byteOffset" : 33420
        },
        {
            "buffer" : 0,
            "byteLength" : 1740,
            "byteOffset" : 34908
        },
        {
            "buffer" : 0,
            "byteLength" : 936,
            "byteOffset" : 36648
        },
        {
            "buffer" : 0,
            "byteLength" : 936,
            "byteOffset" : 37584
        },
        {
            "buffer" : 0,
            "byteLength" : 624,
            "byteOffset" : 38520
        },
        {
            "buffer" : 0,
            "byteLength" : 444,
            "byteOffset" : 39144
        },
        {
            "buffer" : 0,
            "byteLength" : 2220,
            "byteOffset" : 39588
        },
        {
            "buffer" : 0,
            "byteLength" : 2220,
            "byteOffset" : 41808
        },
        {
            "buffer" : 0,
            "byteLength" : 1480,
            "byteOffset" : 44028
        },
        {
            "buffer" : 0,
            "byteLength" : 1728,
            "byteOffset" : 45508
        },
        {
            "buffer" : 0,
            "byteLength" : 1152,
            "byteOffset" : 47236
        },
        {
            "buffer" : 0,
            "byteLength" : 1152,
            "byteOffset" : 48388
        },
        {
            "buffer" : 0,
            "byteLength" : 768,
            "byteOffset" : 49540
        },
        {
            "buffer" : 0,
            "byteLength" : 552,
            "byteOffset" : 50308
        }
    ],
    "buffers" : [
        {
            "byteLength" : 50860,
            "uri" : "data:application/octet-stream;base64,"
        }
    ]
}
