{
    "asset" : {
        "generator" : "Khronos glTF Blender I/O v1.2.75",
        "version" : "2.0"
    },
    "scene" : 0,
    "scenes" : [
        {
            "name" : "Scene",
            "nodes" : [
                0,
                5,
                6,
                7,
                8,
                9,
                10,
                11,
                12,
                13,
                14,
                15,
                16,
                17,
                18,
                19,
                20,
                21,
                22,
                23
            ]
        }
    ],
    "nodes" : [
        {
            "mesh" : 0,
            "name" : "superstructure"
        },
        {
            "mesh" : 1,
            "name" : "Cylinder",
            "translation" : [
                -9.210100173950195,
                -7.900466442108154,
                -115.82063293457031
            ]
        },
        {
            "mesh" : 2,
            "name" : "Cylinder.001",
            "translation" : [
                9.210100173950195,
                -7.900466442108154,
                -115.82063293457031
            ]
        },
        {
            "mesh" : 3,
            "name" : "Cylinder.002",
            "translation" : [
                -4.605050086975098,
                -6.851761817932129,
                -125.9520034790039
            ]
        },
        {
            "mesh" : 4,
            "name" : "Cylinder.003",
            "translation" : [
                4.605050086975098,
                -6.851761817932129,
                -125.9520034790039
            ]
        },
        {
            "children" : [
                1,
                2,
                3,
                4
            ],
            "mesh" : 5,
            "name" : "hull"
        },
        {
            "name" : "AK-630.000",
            "translation" : [
                19.914899826049805,
                13.635880470275879,
                -142.79888916015625
            ]
        },
        {
            "name" : "AK-630.001",
            "translation" : [
                -24.952394485473633,
                13.635880470275879,
                -142.79888916015625
            ]
        },
        {
            "name" : "AK-630.002",
            "translation" : [
                35.39582061767578,
                15.379035949707031,
                -6.3867950439453125
            ]
        },
        {
            "name" : "AK-630.003",
            "translation" : [
                35.39582061767578,
                15.379035949707031,
                -9.98678970336914
            ]
        },
        {
            "name" : "AK-630.004",
            "translation" : [
                -30.8521785736084,
                16.445068359375,
                -13.784746170043945
            ]
        },
        {
            "name" : "AK-630.005",
            "translation" : [
                -30.8521785736084,
                16.445068359375,
                -18.00988006591797
            ]
        },
        {
            "name" : "RBU-12000.000",
            "translation" : [
                21.80086326599121,
                14.309103012084961,
                -136.3076629638672
            ]
        },
        {
            "name" : "RBU-12000.001",
            "translation" : [
                -26.514883041381836,
                14.309103012084961,
                -136.3076629638672
            ]
        },
        {
            "name" : "Prop.000",
            "translation" : [
                9.210100173950195,
                -7.900466442108154,
                -115.82063293457031
            ]
        },
        {
            "name" : "Prop.001",
            "translation" : [
                4.605050086975098,
                -6.851761817932129,
                -125.9520034790039
            ]
        },
        {
            "name" : "Prop.002",
            "translation" : [
                -4.605050086975098,
                -6.851761817932129,
                -125.9520034790039
            ]
        },
        {
            "name" : "Prop.003",
            "translation" : [
                -9.210100173950195,
                -7.900466442108154,
                -115.82063293457031
            ]
        },
        {
            "mesh" : 6,
            "name" : "top_plate",
            "translation" : [
                -25.114999771118164,
                55.70000076293945,
                -29.979999542236328
            ]
        },
        {
            "name" : "Bass-Tilt.000",
            "translation" : [
                -18.290531158447266,
                28.344097137451172,
                -24.634300231933594
            ]
        },
        {
            "name" : "Bass-Tilt.001",
            "translation" : [
                -24.8013916015625,
                28.344097137451172,
                -65.84430694580078
            ]
        },
        {
            "name" : "Bass-Tilt.002",
            "translation" : [
                -31.306087493896484,
                28.344097137451172,
                -24.634300231933594
            ]
        },
        {
            "name" : "Empty",
            "rotation" : [
                0.5,
                0.5,
                -0.5,
                0.4999999701976776
            ],
            "scale" : [
                1.2579251527786255,
                1.2579251527786255,
                1.2579251527786255
            ],
            "translation" : [
                18.132869720458984,
                14.690423965454102,
                76.98204803466797
            ]
        },
        {
            "mesh" : 7,
            "name" : "Cylinder.004",
            "translation" : [
                18.132869720458984,
                13.59041976928711,
                75.5
            ]
        }
    ],
    "meshes" : [
        {
            "name" : "Cube.004",
            "primitives" : [
                {
                    "attributes" : {
                        "POSITION" : 0,
                        "NORMAL" : 1,
                        "TEXCOORD_0" : 2
                    },
                    "indices" : 3
                }
            ]
        },
        {
            "name" : "Cylinder",
            "primitives" : [
                {
                    "attributes" : {
                        "POSITION" : 4,
                        "NORMAL" : 5,
                        "TEXCOORD_0" : 6
                    },
                    "indices" : 7
                }
            ]
        },
        {
            "name" : "Cylinder.001",
            "primitives" : [
                {
                    "attributes" : {
                        "POSITION" : 8,
                        "NORMAL" : 9,
                        "TEXCOORD_0" : 10
                    },
                    "indices" : 7
                }
            ]
        },
        {
            "name" : "Cylinder.002",
            "primitives" : [
                {
                    "attributes" : {
                        "POSITION" : 11,
                        "NORMAL" : 12,
                        "TEXCOORD_0" : 13
                    },
                    "indices" : 7
                }
            ]
        },
        {
            "name" : "Cylinder.003",
            "primitives" : [
                {
                    "attributes" : {
                        "POSITION" : 14,
                        "NORMAL" : 15,
                        "TEXCOORD_0" : 16
                    },
                    "indices" : 7
                }
            ]
        },
        {
            "name" : "Cube.002",
            "primitives" : [
                {
                    "attributes" : {
                        "POSITION" : 17,
                        "NORMAL" : 18,
                        "TEXCOORD_0" : 19
                    },
                    "indices" : 20
                }
            ]
        },
        {
            "name" : "Cube.001",
            "primitives" : [
                {
                    "attributes" : {
                        "POSITION" : 21,
                        "NORMAL" : 22,
                        "TEXCOORD_0" : 23
                    },
                    "indices" : 24
                }
            ]
        },
        {
            "name" : "Kashtan",
            "primitives" : [
                {
                    "attributes" : {
                        "POSITION" : 25,
                        "NORMAL" : 26,
                        "TEXCOORD_0" : 27
                    },
                    "indices" : 28
                }
            ]
        }
    ],
    "accessors" : [
        {
            "bufferView" : 0,
            "componentType" : 5126,
            "count" : 1761,
            "max" : [
                -14.872385025024414,
                55.7095832824707,
                -0.7962591648101807
            ],
            "min" : [
                -35.28458786010742,
                16.102096557617188,
                -71.22956848144531
            ],
            "type" : "VEC3"
        },
        {
            "bufferView" : 1,
            "componentType" : 5126,
            "count" : 1761,
            "type" : "VEC3"
        },
        {
            "bufferView" : 2,
            "componentType" : 5126,
            "count" : 1761,
            "type" : "VEC2"
        },
        {
            "bufferView" : 3,
            "componentType" : 5123,
            "count" : 4950,
            "type" : "SCALAR"
        },
        {
            "bufferView" : 4,
            "componentType" : 5126,
            "count" : 128,
            "max" : [
                0.25,
                3.951298713684082,
                84.7901382446289
            ],
            "min" : [
                -0.25,
                -0.24976205825805664,
                -0.010904833674430847
            ],
            "type" : "VEC3"
        },
        {
            "bufferView" : 5,
            "componentType" : 5126,
            "count" : 128,
            "type" : "VEC3"
        },
        {
            "bufferView" : 6,
            "componentType" : 5126,
            "count" : 128,
            "type" : "VEC2"
        },
        {
            "bufferView" : 7,
            "componentType" : 5123,
            "count" : 192,
            "type" : "SCALAR"
        },
        {
            "bufferView" : 8,
            "componentType" : 5126,
            "count" : 128,
            "max" : [
                0.25,
                3.951298713684082,
                84.7901382446289
            ],
            "min" : [
                -0.25,
                -0.24976205825805664,
                -0.010904833674430847
            ],
            "type" : "VEC3"
        },
        {
            "bufferView" : 9,
            "componentType" : 5126,
            "count" : 128,
            "type" : "VEC3"
        },
        {
            "bufferView" : 10,
            "componentType" : 5126,
            "count" : 128,
            "type" : "VEC2"
        },
        {
            "bufferView" : 11,
            "componentType" : 5126,
            "count" : 128,
            "max" : [
                0.25,
                3.951298713684082,
                84.7901382446289
            ],
            "min" : [
                -0.25,
                -0.24976205825805664,
                -0.010904833674430847
            ],
            "type" : "VEC3"
        },
        {
            "bufferView" : 12,
            "componentType" : 5126,
            "count" : 128,
            "type" : "VEC3"
        },
        {
            "bufferView" : 13,
            "componentType" : 5126,
            "count" : 128,
            "type" : "VEC2"
        },
        {
            "bufferView" : 14,
            "componentType" : 5126,
            "count" : 128,
            "max" : [
                0.25,
                3.951298713684082,
                84.7901382446289
            ],
            "min" : [
                -0.25,
                -0.24976205825805664,
                -0.010904833674430847
            ],
            "type" : "VEC3"
        },
        {
            "bufferView" : 15,
            "componentType" : 5126,
            "count" : 128,
            "type" : "VEC3"
        },
        {
            "bufferView" : 16,
            "componentType" : 5126,
            "count" : 128,
            "type" : "VEC2"
        },
        {
            "bufferView" : 17,
            "componentType" : 5126,
            "count" : 6083,
            "max" : [
                49.08498764038086,
                20.82570457458496,
                151.26060485839844
            ],
            "min" : [
                -38.10739517211914,
                -11.821056365966797,
                -151.2955780029297
            ],
            "type" : "VEC3"
        },
        {
            "bufferView" : 18,
            "componentType" : 5126,
            "count" : 6083,
            "type" : "VEC3"
        },
        {
            "bufferView" : 19,
            "componentType" : 5126,
            "count" : 6083,
            "type" : "VEC2"
        },
        {
            "bufferView" : 20,
            "componentType" : 5123,
            "count" : 14127,
            "type" : "SCALAR"
        },
        {
            "bufferView" : 21,
            "componentType" : 5126,
            "count" : 101,
            "max" : [
                1.2904300689697266,
                2.0008621215820312,
                2.990377426147461
            ],
            "min" : [
                -1.2679977416992188,
                -2.022960662841797,
                -3.2119789123535156
            ],
            "type" : "VEC3"
        },
        {
            "bufferView" : 22,
            "componentType" : 5126,
            "count" : 101,
            "type" : "VEC3"
        },
        {
            "bufferView" : 23,
            "componentType" : 5126,
            "count" : 101,
            "type" : "VEC2"
        },
        {
            "bufferView" : 24,
            "componentType" : 5123,
            "count" : 201,
            "type" : "SCALAR"
        },
        {
            "bufferView" : 25,
            "componentType" : 5126,
            "count" : 23736,
            "max" : [
                5.82269287109375,
                3.5362467765808105,
                1.610851764678955
            ],
            "min" : [
                -47.76643371582031,
                0,
                -207.13211059570312
            ],
            "type" : "VEC3"
        },
        {
            "bufferView" : 26,
            "componentType" : 5126,
            "count" : 23736,
            "type" : "VEC3"
        },
        {
            "bufferView" : 27,
            "componentType" : 5126,
            "count" : 23736,
            "type" : "VEC2"
        },
        {
            "bufferView" : 28,
            "componentType" : 5123,
            "count" : 77184,
            "type" : "SCALAR"
        }
    ],
    "bufferViews" : [
        {
            "buffer" : 0,
            "byteLength" : 21132,
            "byteOffset" : 0
        },
        {
            "buffer" : 0,
            "byteLength" : 21132,
            "byteOffset" : 21132
        },
        {
            "buffer" : 0,
            "byteLength" : 14088,
            "byteOffset" : 42264
        },
        {
            "buffer" : 0,
            "byteLength" : 9900,
            "byteOffset" : 56352
        },
        {
            "buffer" : 0,
            "byteLength" : 1536,
            "byteOffset" : 66252
        },
        {
            "buffer" : 0,
            "byteLength" : 1536,
            "byteOffset" : 67788
        },
        {
            "buffer" : 0,
            "byteLength" : 1024,
            "byteOffset" : 69324
        },
        {
            "buffer" : 0,
            "byteLength" : 384,
            "byteOffset" : 70348
        },
        {
            "buffer" : 0,
            "byteLength" : 1536,
            "byteOffset" : 70732
        },
        {
            "buffer" : 0,
            "byteLength" : 1536,
            "byteOffset" : 72268
        },
        {
            "buffer" : 0,
            "byteLength" : 1024,
            "byteOffset" : 73804
        },
        {
            "buffer" : 0,
            "byteLength" : 1536,
            "byteOffset" : 74828
        },
        {
            "buffer" : 0,
            "byteLength" : 1536,
            "byteOffset" : 76364
        },
        {
            "buffer" : 0,
            "byteLength" : 1024,
            "byteOffset" : 77900
        },
        {
            "buffer" : 0,
            "byteLength" : 1536,
            "byteOffset" : 78924
        },
        {
            "buffer" : 0,
            "byteLength" : 1536,
            "byteOffset" : 80460
        },
        {
            "buffer" : 0,
            "byteLength" : 1024,
            "byteOffset" : 81996
        },
        {
            "buffer" : 0,
            "byteLength" : 72996,
            "byteOffset" : 83020
        },
        {
            "buffer" : 0,
            "byteLength" : 72996,
            "byteOffset" : 156016
        },
        {
            "buffer" : 0,
            "byteLength" : 48664,
            "byteOffset" : 229012
        },
        {
            "buffer" : 0,
            "byteLength" : 28254,
            "byteOffset" : 277676
        },
        {
            "buffer" : 0,
            "byteLength" : 1212,
            "byteOffset" : 305932
        },
        {
            "buffer" : 0,
            "byteLength" : 1212,
            "byteOffset" : 307144
        },
        {
            "buffer" : 0,
            "byteLength" : 808,
            "byteOffset" : 308356
        },
        {
            "buffer" : 0,
            "byteLength" : 402,
            "byteOffset" : 309164
        },
        {
            "buffer" : 0,
            "byteLength" : 284832,
            "byteOffset" : 309568
        },
        {
            "buffer" : 0,
            "byteLength" : 284832,
            "byteOffset" : 594400
        },
        {
            "buffer" : 0,
            "byteLength" : 189888,
            "byteOffset" : 879232
        },
        {
            "buffer" : 0,
            "byteLength" : 154368,
            "byteOffset" : 1069120
        }
    ],
    "buffers" : [
        {
            "byteLength" : 1223488,
            "uri" : "data:application/octet-stream;base64,"
        }
    ]
}
