{
    "asset" : {
        "generator" : "Khronos glTF Blender I/O v1.2.75",
        "version" : "2.0"
    },
    "scene" : 0,
    "scenes" : [
        {
            "name" : "Scene",
            "nodes" : [
                0,
                1,
                2,
                3,
                4,
                5,
                6
            ]
        }
    ],
    "nodes" : [
        {
            "mesh" : 0,
            "name" : "fra_ssn_suffren_prop",
            "translation" : [
                -0.029462000355124474,
                -3.0611701011657715,
                -50.764400482177734
            ]
        },
        {
            "mesh" : 1,
            "name" : "fra_ssn_suffren"
        },
        {
            "mesh" : 2,
            "name" : "fra_ssn_suffren_bowplanes",
            "translation" : [
                0.004662000108510256,
                -2.2005999088287354,
                26.009300231933594
            ]
        },
        {
            "mesh" : 3,
            "name" : "fra_ssn_suffren_rudder_down_right",
            "rotation" : [
                0,
                0,
                -0.9238795042037964,
                0.3826834261417389
            ],
            "translation" : [
                -4.02731990814209,
                -7.10929012298584,
                -42.23419952392578
            ]
        },
        {
            "mesh" : 4,
            "name" : "fra_ssn_suffren_rudder_down_left",
            "rotation" : [
                0,
                0,
                0.9238795042037964,
                0.3826834261417389
            ],
            "translation" : [
                3.9373199939727783,
                -7.10929012298584,
                -42.23419952392578
            ]
        },
        {
            "mesh" : 5,
            "name" : "fra_ssn_suffren_rudder_up_left",
            "rotation" : [
                0,
                0,
                0.3826834559440613,
                0.9238795042037964
            ],
            "translation" : [
                4.011020183563232,
                0.9529569745063782,
                -42.2307014465332
            ]
        },
        {
            "mesh" : 6,
            "name" : "fra_ssn_suffren_rudder_up_right",
            "rotation" : [
                0,
                0,
                -0.9238795638084412,
                -0.3826833963394165
            ],
            "translation" : [
                -4.011020183563232,
                0.9529569745063782,
                -42.2307014465332
            ]
        }
    ],
    "meshes" : [
        {
            "name" : "Suffren_helice",
            "primitives" : [
                {
                    "attributes" : {
                        "POSITION" : 0,
                        "NORMAL" : 1,
                        "TEXCOORD_0" : 2
                    },
                    "indices" : 3
                }
            ]
        },
        {
            "name" : "Suffren.001",
            "primitives" : [
                {
                    "attributes" : {
                        "POSITION" : 4,
                        "NORMAL" : 5,
                        "TEXCOORD_0" : 6
                    },
                    "indices" : 7
                }
            ]
        },
        {
            "name" : "Suffren.004",
            "primitives" : [
                {
                    "attributes" : {
                        "POSITION" : 8,
                        "NORMAL" : 9,
                        "TEXCOORD_0" : 10
                    },
                    "indices" : 11
                }
            ]
        },
        {
            "name" : "Suffren.005",
            "primitives" : [
                {
                    "attributes" : {
                        "POSITION" : 12,
                        "NORMAL" : 13,
                        "TEXCOORD_0" : 14
                    },
                    "indices" : 15
                }
            ]
        },
        {
            "name" : "Suffren.002",
            "primitives" : [
                {
                    "attributes" : {
                        "POSITION" : 16,
                        "NORMAL" : 17,
                        "TEXCOORD_0" : 18
                    },
                    "indices" : 19
                }
            ]
        },
        {
            "name" : "Suffren.006",
            "primitives" : [
                {
                    "attributes" : {
                        "POSITION" : 20,
                        "NORMAL" : 21,
                        "TEXCOORD_0" : 22
                    },
                    "indices" : 15
                }
            ]
        },
        {
            "name" : "Suffren.007",
            "primitives" : [
                {
                    "attributes" : {
                        "POSITION" : 23,
                        "NORMAL" : 24,
                        "TEXCOORD_0" : 25
                    },
                    "indices" : 26
                }
            ]
        }
    ],
    "accessors" : [
        {
            "bufferView" : 0,
            "componentType" : 5126,
            "count" : 774,
            "max" : [
                2.444084882736206,
                2.251743793487549,
                1.40386962890625
            ],
            "min" : [
                -2.3148105144500732,
                -2.452519178390503,
                -4.1961669921875e-05
            ],
            "type" : "VEC3"
        },
        {
            "bufferView" : 1,
            "componentType" : 5126,
            "count" : 774,
            "type" : "VEC3"
        },
        {
            "bufferView" : 2,
            "componentType" : 5126,
            "count" : 774,
            "type" : "VEC2"
        },
        {
            "bufferView" : 3,
            "componentType" : 5123,
            "count" : 2832,
            "type" : "SCALAR"
        },
        {
            "bufferView" : 4,
            "componentType" : 5126,
            "count" : 13563,
            "max" : [
                9.222896575927734,
                10.328706741333008,
                50.79790496826172
            ],
            "min" : [
                -5.452904224395752,
                -8.386865615844727,
                -50.7978515625
            ],
            "type" : "VEC3"
        },
        {
            "bufferView" : 5,
            "componentType" : 5126,
            "count" : 13563,
            "type" : "VEC3"
        },
        {
            "bufferView" : 6,
            "componentType" : 5126,
            "count" : 13563,
            "type" : "VEC2"
        },
        {
            "bufferView" : 7,
            "componentType" : 5123,
            "count" : 54249,
            "type" : "SCALAR"
        },
        {
            "bufferView" : 8,
            "componentType" : 5126,
            "count" : 202,
            "max" : [
                9.243444442749023,
                0.2995724678039551,
                2.132894515991211
            ],
            "min" : [
                -9.228673934936523,
                -0.31861352920532227,
                -1.5605449676513672
            ],
            "type" : "VEC3"
        },
        {
            "bufferView" : 9,
            "componentType" : 5126,
            "count" : 202,
            "type" : "VEC3"
        },
        {
            "bufferView" : 10,
            "componentType" : 5126,
            "count" : 202,
            "type" : "VEC2"
        },
        {
            "bufferView" : 11,
            "componentType" : 5123,
            "count" : 849,
            "type" : "SCALAR"
        },
        {
            "bufferView" : 12,
            "componentType" : 5126,
            "count" : 147,
            "max" : [
                1.5769259929656982,
                0.1850419044494629,
                0.07395172119140625
            ],
            "min" : [
                -1.4523096084594727,
                -0.3106442093849182,
                -2.2745399475097656
            ],
            "type" : "VEC3"
        },
        {
            "bufferView" : 13,
            "componentType" : 5126,
            "count" : 147,
            "type" : "VEC3"
        },
        {
            "bufferView" : 14,
            "componentType" : 5126,
            "count" : 147,
            "type" : "VEC2"
        },
        {
            "bufferView" : 15,
            "componentType" : 5123,
            "count" : 402,
            "type" : "SCALAR"
        },
        {
            "bufferView" : 16,
            "componentType" : 5126,
            "count" : 150,
            "max" : [
                1.454435110092163,
                0.18917644023895264,
                0.08141770213842392
            ],
            "min" : [
                -1.5759308338165283,
                -0.30644840002059937,
                -2.267821788787842
            ],
            "type" : "VEC3"
        },
        {
            "bufferView" : 17,
            "componentType" : 5126,
            "count" : 150,
            "type" : "VEC3"
        },
        {
            "bufferView" : 18,
            "componentType" : 5126,
            "count" : 150,
            "type" : "VEC2"
        },
        {
            "bufferView" : 19,
            "componentType" : 5123,
            "count" : 402,
            "type" : "SCALAR"
        },
        {
            "bufferView" : 20,
            "componentType" : 5126,
            "count" : 147,
            "max" : [
                1.6099601984024048,
                0.2460649311542511,
                0.072235107421875
            ],
            "min" : [
                -1.419273853302002,
                -0.24962162971496582,
                -2.276256561279297
            ],
            "type" : "VEC3"
        },
        {
            "bufferView" : 21,
            "componentType" : 5126,
            "count" : 147,
            "type" : "VEC3"
        },
        {
            "bufferView" : 22,
            "componentType" : 5126,
            "count" : 147,
            "type" : "VEC2"
        },
        {
            "bufferView" : 23,
            "componentType" : 5126,
            "count" : 142,
            "max" : [
                1.6399962902069092,
                0.2460731565952301,
                0.07043838500976562
            ],
            "min" : [
                -1.3892369270324707,
                -0.24961411952972412,
                -2.2780532836914062
            ],
            "type" : "VEC3"
        },
        {
            "bufferView" : 24,
            "componentType" : 5126,
            "count" : 142,
            "type" : "VEC3"
        },
        {
            "bufferView" : 25,
            "componentType" : 5126,
            "count" : 142,
            "type" : "VEC2"
        },
        {
            "bufferView" : 26,
            "componentType" : 5123,
            "count" : 402,
            "type" : "SCALAR"
        }
    ],
    "bufferViews" : [
        {
            "buffer" : 0,
            "byteLength" : 9288,
            "byteOffset" : 0
        },
        {
            "buffer" : 0,
            "byteLength" : 9288,
            "byteOffset" : 9288
        },
        {
            "buffer" : 0,
            "byteLength" : 6192,
            "byteOffset" : 18576
        },
        {
            "buffer" : 0,
            "byteLength" : 5664,
            "byteOffset" : 24768
        },
        {
            "buffer" : 0,
            "byteLength" : 162756,
            "byteOffset" : 30432
        },
        {
            "buffer" : 0,
            "byteLength" : 162756,
            "byteOffset" : 193188
        },
        {
            "buffer" : 0,
            "byteLength" : 108504,
            "byteOffset" : 355944
        },
        {
            "buffer" : 0,
            "byteLength" : 108498,
            "byteOffset" : 464448
        },
        {
            "buffer" : 0,
            "byteLength" : 2424,
            "byteOffset" : 572948
        },
        {
            "buffer" : 0,
            "byteLength" : 2424,
            "byteOffset" : 575372
        },
        {
            "buffer" : 0,
            "byteLength" : 1616,
            "byteOffset" : 577796
        },
        {
            "buffer" : 0,
            "byteLength" : 1698,
            "byteOffset" : 579412
        },
        {
            "buffer" : 0,
            "byteLength" : 1764,
            "byteOffset" : 581112
        },
        {
            "buffer" : 0,
            "byteLength" : 1764,
            "byteOffset" : 582876
        },
        {
            "buffer" : 0,
            "byteLength" : 1176,
            "byteOffset" : 584640
        },
        {
            "buffer" : 0,
            "byteLength" : 804,
            "byteOffset" : 585816
        },
        {
            "buffer" : 0,
            "byteLength" : 1800,
            "byteOffset" : 586620
        },
        {
            "buffer" : 0,
            "byteLength" : 1800,
            "byteOffset" : 588420
        },
        {
            "buffer" : 0,
            "byteLength" : 1200,
            "byteOffset" : 590220
        },
        {
            "buffer" : 0,
            "byteLength" : 804,
            "byteOffset" : 591420
        },
        {
            "buffer" : 0,
            "byteLength" : 1764,
            "byteOffset" : 592224
        },
        {
            "buffer" : 0,
            "byteLength" : 1764,
            "byteOffset" : 593988
        },
        {
            "buffer" : 0,
            "byteLength" : 1176,
            "byteOffset" : 595752
        },
        {
            "buffer" : 0,
            "byteLength" : 1704,
            "byteOffset" : 596928
        },
        {
            "buffer" : 0,
            "byteLength" : 1704,
            "byteOffset" : 598632
        },
        {
            "buffer" : 0,
            "byteLength" : 1136,
            "byteOffset" : 600336
        },
        {
            "buffer" : 0,
            "byteLength" : 804,
            "byteOffset" : 601472
        }
    ],
    "buffers" : [
        {
            "byteLength" : 602276,
            "uri" : "data:application/octet-stream;base64,"
        }
    ]
}
