{
    "asset" : {
        "generator" : "Khronos glTF Blender I/O v1.2.75",
        "version" : "2.0"
    },
    "scene" : 0,
    "scenes" : [
        {
            "name" : "Scene",
            "nodes" : [
                0,
                1,
                2,
                3,
                4,
                5
            ]
        }
    ],
    "nodes" : [
        {
            "mesh" : 0,
            "name" : "Elevator"
        },
        {
            "mesh" : 1,
            "name" : "Rudder_Right"
        },
        {
            "mesh" : 2,
            "name" : "Aileron_Right"
        },
        {
            "mesh" : 3,
            "name" : "Rudder_Left"
        },
        {
            "mesh" : 4,
            "name" : "Aileron_Left"
        },
        {
            "mesh" : 5,
            "name" : "Main"
        }
    ],
    "meshes" : [
        {
            "name" : "part_20_LOD_100",
            "primitives" : [
                {
                    "attributes" : {
                        "POSITION" : 0,
                        "NORMAL" : 1,
                        "TEXCOORD_0" : 2
                    },
                    "indices" : 3
                }
            ]
        },
        {
            "name" : "part_21_LOD_100",
            "primitives" : [
                {
                    "attributes" : {
                        "POSITION" : 4,
                        "NORMAL" : 5,
                        "TEXCOORD_0" : 6
                    },
                    "indices" : 7
                }
            ]
        },
        {
            "name" : "part_24_LOD_100",
            "primitives" : [
                {
                    "attributes" : {
                        "POSITION" : 8,
                        "NORMAL" : 9,
                        "TEXCOORD_0" : 10
                    },
                    "indices" : 11
                }
            ]
        },
        {
            "name" : "part_31_LOD_100",
            "primitives" : [
                {
                    "attributes" : {
                        "POSITION" : 12,
                        "NORMAL" : 13,
                        "TEXCOORD_0" : 14
                    },
                    "indices" : 7
                }
            ]
        },
        {
            "name" : "part_33_LOD_100",
            "primitives" : [
                {
                    "attributes" : {
                        "POSITION" : 15,
                        "NORMAL" : 16,
                        "TEXCOORD_0" : 17
                    },
                    "indices" : 11
                }
            ]
        },
        {
            "name" : "part_5_LOD_100.001",
            "primitives" : [
                {
                    "attributes" : {
                        "POSITION" : 18,
                        "NORMAL" : 19,
                        "TEXCOORD_0" : 20
                    },
                    "indices" : 21
                }
            ]
        }
    ],
    "accessors" : [
        {
            "bufferView" : 0,
            "componentType" : 5126,
            "count" : 60,
            "max" : [
                4.939451694488525,
                1.310546875,
                -13.050779342651367
            ],
            "min" : [
                -4.93944787979126,
                1.0371068716049194,
                -14.240229606628418
            ],
            "type" : "VEC3"
        },
        {
            "bufferView" : 1,
            "componentType" : 5126,
            "count" : 60,
            "type" : "VEC3"
        },
        {
            "bufferView" : 2,
            "componentType" : 5126,
            "count" : 60,
            "type" : "VEC2"
        },
        {
            "bufferView" : 3,
            "componentType" : 5123,
            "count" : 60,
            "type" : "SCALAR"
        },
        {
            "bufferView" : 4,
            "componentType" : 5126,
            "count" : 168,
            "max" : [
                -4.93944787979126,
                3.933586835861206,
                -13.05078125
            ],
            "min" : [
                -5.183588027954102,
                -0.5175830721855164,
                -14.45508098602295
            ],
            "type" : "VEC3"
        },
        {
            "bufferView" : 5,
            "componentType" : 5126,
            "count" : 168,
            "type" : "VEC3"
        },
        {
            "bufferView" : 6,
            "componentType" : 5126,
            "count" : 168,
            "type" : "VEC2"
        },
        {
            "bufferView" : 7,
            "componentType" : 5123,
            "count" : 168,
            "type" : "SCALAR"
        },
        {
            "bufferView" : 8,
            "componentType" : 5126,
            "count" : 12,
            "max" : [
                -9.728520393371582,
                0.8925795555114746,
                -1.769531488418579
            ],
            "min" : [
                -17.595699310302734,
                0.0800795778632164,
                -2.652341365814209
            ],
            "type" : "VEC3"
        },
        {
            "bufferView" : 9,
            "componentType" : 5126,
            "count" : 12,
            "type" : "VEC3"
        },
        {
            "bufferView" : 10,
            "componentType" : 5126,
            "count" : 12,
            "type" : "VEC2"
        },
        {
            "bufferView" : 11,
            "componentType" : 5123,
            "count" : 12,
            "type" : "SCALAR"
        },
        {
            "bufferView" : 12,
            "componentType" : 5126,
            "count" : 168,
            "max" : [
                5.183591842651367,
                3.933586835861206,
                -13.050779342651367
            ],
            "min" : [
                4.939451694488525,
                -0.5175830721855164,
                -14.455079078674316
            ],
            "type" : "VEC3"
        },
        {
            "bufferView" : 13,
            "componentType" : 5126,
            "count" : 168,
            "type" : "VEC3"
        },
        {
            "bufferView" : 14,
            "componentType" : 5126,
            "count" : 168,
            "type" : "VEC2"
        },
        {
            "bufferView" : 15,
            "componentType" : 5126,
            "count" : 12,
            "max" : [
                17.595699310302734,
                0.8925795555114746,
                -1.7695276737213135
            ],
            "min" : [
                9.728520393371582,
                0.0800795778632164,
                -2.6523385047912598
            ],
            "type" : "VEC3"
        },
        {
            "bufferView" : 16,
            "componentType" : 5126,
            "count" : 12,
            "type" : "VEC3"
        },
        {
            "bufferView" : 17,
            "componentType" : 5126,
            "count" : 12,
            "type" : "VEC2"
        },
        {
            "bufferView" : 18,
            "componentType" : 5126,
            "count" : 5043,
            "max" : [
                17.867189407348633,
                3.933586835861206,
                9.513669967651367
            ],
            "min" : [
                -17.867189407348633,
                -1.7070302963256836,
                -16.955080032348633
            ],
            "type" : "VEC3"
        },
        {
            "bufferView" : 19,
            "componentType" : 5126,
            "count" : 5043,
            "type" : "VEC3"
        },
        {
            "bufferView" : 20,
            "componentType" : 5126,
            "count" : 5043,
            "type" : "VEC2"
        },
        {
            "bufferView" : 21,
            "componentType" : 5123,
            "count" : 5043,
            "type" : "SCALAR"
        }
    ],
    "bufferViews" : [
        {
            "buffer" : 0,
            "byteLength" : 720,
            "byteOffset" : 0
        },
        {
            "buffer" : 0,
            "byteLength" : 720,
            "byteOffset" : 720
        },
        {
            "buffer" : 0,
            "byteLength" : 480,
            "byteOffset" : 1440
        },
        {
            "buffer" : 0,
            "byteLength" : 120,
            "byteOffset" : 1920
        },
        {
            "buffer" : 0,
            "byteLength" : 2016,
            "byteOffset" : 2040
        },
        {
            "buffer" : 0,
            "byteLength" : 2016,
            "byteOffset" : 4056
        },
        {
            "buffer" : 0,
            "byteLength" : 1344,
            "byteOffset" : 6072
        },
        {
            "buffer" : 0,
            "byteLength" : 336,
            "byteOffset" : 7416
        },
        {
            "buffer" : 0,
            "byteLength" : 144,
            "byteOffset" : 7752
        },
        {
            "buffer" : 0,
            "byteLength" : 144,
            "byteOffset" : 7896
        },
        {
            "buffer" : 0,
            "byteLength" : 96,
            "byteOffset" : 8040
        },
        {
            "buffer" : 0,
            "byteLength" : 24,
            "byteOffset" : 8136
        },
        {
            "buffer" : 0,
            "byteLength" : 2016,
            "byteOffset" : 8160
        },
        {
            "buffer" : 0,
            "byteLength" : 2016,
            "byteOffset" : 10176
        },
        {
            "buffer" : 0,
            "byteLength" : 1344,
            "byteOffset" : 12192
        },
        {
            "buffer" : 0,
            "byteLength" : 144,
            "byteOffset" : 13536
        },
        {
            "buffer" : 0,
            "byteLength" : 144,
            "byteOffset" : 13680
        },
        {
            "buffer" : 0,
            "byteLength" : 96,
            "byteOffset" : 13824
        },
        {
            "buffer" : 0,
            "byteLength" : 60516,
            "byteOffset" : 13920
        },
        {
            "buffer" : 0,
            "byteLength" : 60516,
            "byteOffset" : 74436
        },
        {
            "buffer" : 0,
            "byteLength" : 40344,
            "byteOffset" : 134952
        },
        {
            "buffer" : 0,
            "byteLength" : 10086,
            "byteOffset" : 175296
        }
    ],
    "buffers" : [
        {
            "byteLength" : 185384,
            "uri" : "data:application/octet-stream;base64,"
        }
    ]
}
